<?xml version="1.0"?>
<svg xmlns="http://www.w3.org/2000/svg" xmlns:xlink="http://www.w3.org/1999/xlink" xmlns:ev="http://www.w3.org/2001/xml-events" version="1.1" baseProfile="full" viewBox="-11.5 -11.5 303 303">
	<g>
		<g>
			<path fill="none" d=" M0,280 L40,240" stroke="#000000" stroke-width="1.500000px" />
		</g>
		<g>
			<path fill="none" d=" M0,280 L280,280" stroke="#000000" stroke-width="1.500000px" />
		</g>
		<g>
			<path fill="none" d=" M0,280 L0,120" stroke="#000000" stroke-width="1.500000px" />
		</g>
		<g>
			<path fill="none" d=" M40,240 L40,200" stroke="#000000" stroke-width="1.500000px" />
		</g>
		<g>
			<path fill="none" d=" M40,240 L280,280" stroke="#000000" stroke-width="1.500000px" />
		</g>
		<g>
			<path fill="none" d=" M40,200 L0,120" stroke="#000000" stroke-width="1.500000px" />
		</g>
		<g>
			<path fill="none" d=" M40,200 L280,280" stroke="#000000" stroke-width="1.500000px" />
		</g>
		<g>
			<path fill="none" d=" M0,120 L0,0" stroke="#000000" stroke-width="1.500000px" />
		</g>
		<g>
			<path fill="none" d=" M0,120 L80,120" stroke="#000000" stroke-width="1.500000px" />
		</g>
		<g>
			<path fill="none" d=" M0,120 L280,280" stroke="#000000" stroke-width="1.500000px" />
		</g>
		<g>
			<path fill="none" d=" M80,120 L40,80" stroke="#000000" stroke-width="1.500000px" />
		</g>
		<g>
			<path fill="none" d=" M80,120 L0,0" stroke="#000000" stroke-width="1.500000px" />
		</g>
		<g>
			<path fill="none" d=" M0,0 L40,80" stroke="#000000" stroke-width="1.500000px" />
		</g>
	</g>
	<g>
		<ellipse cx="0" cy="280" rx="10" ry="10" fill="#FFFFFF" stroke-width="1.000000px" stroke="#000000" />
		<text x="0" y="280" text-anchor="middle" dominant-baseline="middle" font-family="Arial" font-size="10" fill="#000000">0</text>
	</g>
	<g>
		<ellipse cx="40" cy="240" rx="10" ry="10" fill="#FFFFFF" stroke-width="1.000000px" stroke="#000000" />
		<text x="40" y="240" text-anchor="middle" dominant-baseline="middle" font-family="Arial" font-size="10" fill="#000000">1</text>
	</g>
	<g>
		<ellipse cx="40" cy="200" rx="10" ry="10" fill="#FFFFFF" stroke-width="1.000000px" stroke="#000000" />
		<text x="40" y="200" text-anchor="middle" dominant-baseline="middle" font-family="Arial" font-size="10" fill="#000000">2</text>
	</g>
	<g>
		<ellipse cx="0" cy="120" rx="10" ry="10" fill="#FFFFFF" stroke-width="1.000000px" stroke="#000000" />
		<text x="0" y="120" text-anchor="middle" dominant-baseline="middle" font-family="Arial" font-size="10" fill="#000000">3</text>
	</g>
	<g>
		<ellipse cx="280" cy="280" rx="10" ry="10" fill="#FFFFFF" stroke-width="1.000000px" stroke="#000000" />
		<text x="280" y="280" text-anchor="middle" dominant-baseline="middle" font-family="Arial" font-size="10" fill="#000000">4</text>
	</g>
	<g>
		<ellipse cx="80" cy="120" rx="10" ry="10" fill="#FFFFFF" stroke-width="1.000000px" stroke="#000000" />
		<text x="80" y="120" text-anchor="middle" dominant-baseline="middle" font-family="Arial" font-size="10" fill="#000000">5</text>
	</g>
	<g>
		<ellipse cx="0" cy="0" rx="10" ry="10" fill="#FFFFFF" stroke-width="1.000000px" stroke="#000000" />
		<text x="0" y="0" text-anchor="middle" dominant-baseline="middle" font-family="Arial" font-size="10" fill="#000000">6</text>
	</g>
	<g>
		<ellipse cx="40" cy="80" rx="10" ry="10" fill="#FFFFFF" stroke-width="1.000000px" stroke="#000000" />
		<text x="40" y="80" text-anchor="middle" dominant-baseline="middle" font-family="Arial" font-size="10" fill="#000000">7</text>
	</g>
</svg>
