<?xml version="1.0"?>
<svg xmlns="http://www.w3.org/2000/svg" xmlns:xlink="http://www.w3.org/1999/xlink" xmlns:ev="http://www.w3.org/2001/xml-events" version="1.1" baseProfile="full" viewBox="-11.5 -11.5 143 143">
	<g>
		<g>
			<path fill="none" d=" M0,120 L0,0" stroke="#000000" stroke-width="1.500000px" />
		</g>
		<g>
			<path fill="none" d=" M0,120 L40,80" stroke="#000000" stroke-width="1.500000px" />
		</g>
		<g>
			<path fill="none" d=" M0,120 L120,120" stroke="#000000" stroke-width="1.500000px" />
		</g>
		<g>
			<path fill="none" d=" M0,0 L80,80" stroke="#000000" stroke-width="1.500000px" />
		</g>
		<g>
			<path fill="none" d=" M0,0 L40,80" stroke="#000000" stroke-width="1.500000px" />
		</g>
		<g>
			<path fill="none" d=" M80,80 L120,120" stroke="#000000" stroke-width="1.500000px" />
		</g>
		<g>
			<path fill="none" d=" M80,80 L40,80" stroke="#000000" stroke-width="1.500000px" />
		</g>
		<g>
			<path fill="none" d=" M120,120 L40,80" stroke="#000000" stroke-width="1.500000px" />
		</g>
	</g>
	<g>
		<ellipse cx="0" cy="120" rx="10" ry="10" fill="#FFFFFF" stroke-width="1.000000px" stroke="#000000" />
		<text x="0" y="120" text-anchor="middle" dominant-baseline="middle" font-family="Arial" font-size="10" fill="#000000">0</text>
	</g>
	<g>
		<ellipse cx="0" cy="0" rx="10" ry="10" fill="#FFFFFF" stroke-width="1.000000px" stroke="#000000" />
		<text x="0" y="0" text-anchor="middle" dominant-baseline="middle" font-family="Arial" font-size="10" fill="#000000">1</text>
	</g>
	<g>
		<ellipse cx="80" cy="80" rx="10" ry="10" fill="#FFFFFF" stroke-width="1.000000px" stroke="#000000" />
		<text x="80" y="80" text-anchor="middle" dominant-baseline="middle" font-family="Arial" font-size="10" fill="#000000">2</text>
	</g>
	<g>
		<ellipse cx="120" cy="120" rx="10" ry="10" fill="#FFFFFF" stroke-width="1.000000px" stroke="#000000" />
		<text x="120" y="120" text-anchor="middle" dominant-baseline="middle" font-family="Arial" font-size="10" fill="#000000">3</text>
	</g>
	<g>
		<ellipse cx="40" cy="80" rx="10" ry="10" fill="#FFFFFF" stroke-width="1.000000px" stroke="#000000" />
		<text x="40" y="80" text-anchor="middle" dominant-baseline="middle" font-family="Arial" font-size="10" fill="#000000">4</text>
	</g>
</svg>
